M48
; DRILL file {KiCad 9.0.6} date 2025-11-09T15:26:29+0100
; FORMAT={-:-/ absolute / inch / decimal}
; #@! TF.CreationDate,2025-11-09T15:26:29+01:00
; #@! TF.GenerationSoftware,Kicad,Pcbnew,9.0.6
; #@! TF.FileFunction,Plated,1,2,PTH
FMAT,2
INCH
; #@! TA.AperFunction,Plated,PTH,ViaDrill
T1C0.0118
; #@! TA.AperFunction,Plated,PTH,ViaDrill
T2C0.0236
; #@! TA.AperFunction,Plated,PTH,ComponentDrill
T3C0.0295
; #@! TA.AperFunction,Plated,PTH,ComponentDrill
T4C0.0315
; #@! TA.AperFunction,Plated,PTH,ComponentDrill
T5C0.0394
; #@! TA.AperFunction,Plated,PTH,ComponentDrill
T6C0.0402
; #@! TA.AperFunction,Plated,PTH,ComponentDrill
T7C0.0433
; #@! TA.AperFunction,Plated,PTH,ComponentDrill
T8C0.0512
; #@! TA.AperFunction,Plated,PTH,ComponentDrill
T9C0.0606
%
G90
G05
T1
X5.5746Y-3.7839
X5.6102Y-3.6614
X5.6199Y-3.2196
X5.6384Y-3.4252
X5.6384Y-3.5429
X5.6385Y-2.1308
X5.6385Y-2.6036
X5.6568Y-3.1839
X5.8092Y-2.6885
X6.4279Y-3.4379
X6.4569Y-3.6714
X6.5819Y-2.988
X6.5964Y-3.0821
X6.6024Y-2.1603
X6.6076Y-2.327
X6.697Y-3.3076
X6.7684Y-2.4783
X6.8365Y-2.6015
X7.0155Y-3.3939
X7.0446Y-4.835
X7.0709Y-2.861
X7.2985Y-3.0722
X7.4067Y-2.3661
T2
X6.697Y-4.4842
T3
X5.0295Y-3.4941
X5.0295Y-3.5728
X5.0295Y-3.6516
X5.0295Y-3.7303
X5.0394Y-4.0059
X5.1181Y-4.0059
X5.1969Y-4.0059
X7.2933Y-4.6555
X7.2933Y-4.7343
X7.2933Y-4.813
X7.2933Y-4.8917
X7.3031Y-2.4705
X7.3031Y-2.5492
X7.3031Y-2.628
X7.3031Y-2.7067
X7.3031Y-3.4252
X7.3031Y-3.5039
X7.3031Y-3.5827
X7.3031Y-3.6614
T4
X4.4327Y-3.7697
X4.4362Y-3.9173
X4.5336Y-4.5866
X4.5412Y-4.2224
X4.5631Y-4.8524
X4.6615Y-4.8524
X4.6714Y-4.5866
X4.679Y-4.2224
X4.8327Y-3.7697
X4.8362Y-3.9173
X5.0197Y-4.2618
X5.1181Y-4.2618
X5.2461Y-1.9457
X5.2461Y-2.3457
X5.2756Y-3.6614
X5.374Y-2.3295
X5.374Y-3.6614
X5.4724Y-2.3295
X6.6799Y-3.6614
X6.7106Y-3.0413
X6.7106Y-3.4413
X6.7126Y-2.5
X6.7126Y-2.9
X6.8484Y-2.5
X6.8484Y-2.9
X6.8484Y-3.0413
X6.8484Y-3.4413
X7.0472Y-4.5472
X7.0472Y-4.9472
X7.0799Y-3.6614
X7.1161Y-3.9142
X7.1161Y-4.3142
X7.3228Y-2.861
X7.3228Y-3.261
X7.3307Y-1.9063
X7.3307Y-2.3063
T5
X6.1549Y-3.1083
X6.2549Y-3.1083
X6.3549Y-3.1083
T6
X4.7295Y-2.5382
X4.7295Y-3.2382
X4.8295Y-2.5382
X4.8295Y-3.2382
X4.9295Y-2.5382
X4.9295Y-3.2382
X5.0295Y-2.5382
X5.0295Y-3.2382
X5.1295Y-2.5382
X5.1295Y-3.2382
X5.1673Y-4.5965
X5.1673Y-4.6965
X5.1673Y-4.7965
X5.2295Y-2.5382
X5.2295Y-3.2382
X5.3295Y-2.5382
X5.3295Y-3.2382
X5.4295Y-2.5382
X5.4295Y-3.2382
T7
X4.4965Y-3.5707
X4.5965Y-3.5707
X4.6965Y-3.5707
X6.7913Y-1.939
X6.7913Y-2.239
X7.0177Y-1.9882
X7.0177Y-2.0882
X7.0177Y-2.1882
X7.2856Y-4.0043
X7.2856Y-4.1043
X7.2856Y-4.2043
T8
X4.4717Y-2.1062
X4.6685Y-2.1062
X5.5512Y-4.5276
X5.5512Y-4.7244
T9
X5.8602Y-4.345
X5.8602Y-4.4788
X5.8602Y-4.7781
X5.8602Y-4.9158
X6.7618Y-4.3568
X6.7618Y-4.9158
M30
