%TF.GenerationSoftware,KiCad,Pcbnew,9.0.6*%
%TF.CreationDate,2025-11-09T15:25:40+01:00*%
%TF.ProjectId,pi-pico-alarmclock,70692d70-6963-46f2-9d61-6c61726d636c,rev?*%
%TF.SameCoordinates,Original*%
%TF.FileFunction,Soldermask,Bot*%
%TF.FilePolarity,Negative*%
%FSLAX46Y46*%
G04 Gerber Fmt 4.6, Leading zero omitted, Abs format (unit mm)*
G04 Created by KiCad (PCBNEW 9.0.6) date 2025-11-09 15:25:40*
%MOMM*%
%LPD*%
G01*
G04 APERTURE LIST*
G04 Aperture macros list*
%AMRoundRect*
0 Rectangle with rounded corners*
0 $1 Rounding radius*
0 $2 $3 $4 $5 $6 $7 $8 $9 X,Y pos of 4 corners*
0 Add a 4 corners polygon primitive as box body*
4,1,4,$2,$3,$4,$5,$6,$7,$8,$9,$2,$3,0*
0 Add four circle primitives for the rounded corners*
1,1,$1+$1,$2,$3*
1,1,$1+$1,$4,$5*
1,1,$1+$1,$6,$7*
1,1,$1+$1,$8,$9*
0 Add four rect primitives between the rounded corners*
20,1,$1+$1,$2,$3,$4,$5,0*
20,1,$1+$1,$4,$5,$6,$7,0*
20,1,$1+$1,$6,$7,$8,$9,0*
20,1,$1+$1,$8,$9,$2,$3,0*%
G04 Aperture macros list end*
%ADD10R,2.800000X2.800000*%
%ADD11C,1.600000*%
%ADD12RoundRect,0.250000X0.625000X-0.350000X0.625000X0.350000X-0.625000X0.350000X-0.625000X-0.350000X0*%
%ADD13O,1.750000X1.200000*%
%ADD14RoundRect,0.250000X-0.550000X-0.550000X0.550000X-0.550000X0.550000X0.550000X-0.550000X0.550000X0*%
%ADD15RoundRect,0.250000X1.050000X-1.050000X1.050000X1.050000X-1.050000X1.050000X-1.050000X-1.050000X0*%
%ADD16C,2.600000*%
%ADD17C,2.200000*%
%ADD18C,1.850000*%
%ADD19RoundRect,0.200000X-0.600000X-0.600000X0.600000X-0.600000X0.600000X0.600000X-0.600000X0.600000X0*%
%ADD20R,1.800000X1.800000*%
%ADD21C,1.800000*%
%ADD22RoundRect,0.250000X-1.050000X-1.050000X1.050000X-1.050000X1.050000X1.050000X-1.050000X1.050000X0*%
%ADD23R,2.000000X1.905000*%
%ADD24O,2.000000X1.905000*%
%ADD25RoundRect,0.250000X-0.350000X-0.625000X0.350000X-0.625000X0.350000X0.625000X-0.350000X0.625000X0*%
%ADD26O,1.200000X1.750000*%
%ADD27R,1.905000X2.000000*%
%ADD28O,1.905000X2.000000*%
%ADD29R,2.200000X2.200000*%
%ADD30O,2.200000X2.200000*%
G04 APERTURE END LIST*
D10*
%TO.C,U3*%
X171750000Y-124862500D03*
X171750000Y-110662500D03*
X148850000Y-124862500D03*
X148850000Y-110362500D03*
X148850000Y-121362500D03*
X148850000Y-113762500D03*
%TD*%
D11*
%TO.C,C1*%
X136500000Y-59170000D03*
X139000000Y-59170000D03*
%TD*%
D12*
%TO.C,J4*%
X185250000Y-124250000D03*
D13*
X185250000Y-122250000D03*
X185250000Y-120250000D03*
X185250000Y-118250000D03*
%TD*%
D11*
%TO.C,C3*%
X127500000Y-108250000D03*
X130000000Y-108250000D03*
%TD*%
%TO.C,R7*%
X186200000Y-58580000D03*
X186200000Y-48420000D03*
%TD*%
%TO.C,R10*%
X173950000Y-87410000D03*
X173950000Y-77250000D03*
%TD*%
D14*
%TO.C,C2*%
X115347300Y-107250000D03*
D11*
X118847300Y-107250000D03*
%TD*%
%TO.C,R8*%
X179000000Y-125660000D03*
X179000000Y-115500000D03*
%TD*%
%TO.C,R12*%
X173950000Y-63500000D03*
X173950000Y-73660000D03*
%TD*%
%TO.C,R11*%
X170500000Y-63500000D03*
X170500000Y-73660000D03*
%TD*%
D15*
%TO.C,J7*%
X141000000Y-120000000D03*
D16*
X141000000Y-115000000D03*
%TD*%
D12*
%TO.C,J3*%
X185500000Y-68750000D03*
D13*
X185500000Y-66750000D03*
X185500000Y-64750000D03*
X185500000Y-62750000D03*
%TD*%
D11*
%TO.C,C6*%
X136500000Y-93000000D03*
X134000000Y-93000000D03*
%TD*%
%TO.C,R1*%
X122840000Y-99500000D03*
X112680000Y-99500000D03*
%TD*%
D14*
%TO.C,C7*%
X115152700Y-116500000D03*
D11*
X118652700Y-116500000D03*
%TD*%
D17*
%TO.C,U1*%
X153025000Y-49250000D03*
D18*
X153325000Y-52280000D03*
X158175000Y-52280000D03*
D17*
X158475000Y-49250000D03*
D19*
X156334100Y-78950000D03*
D11*
X158874100Y-78950000D03*
X161414100Y-78950000D03*
%TD*%
%TO.C,C4*%
X118402700Y-123250000D03*
X115902700Y-123250000D03*
%TD*%
D20*
%TO.C,D1*%
X137910000Y-64470000D03*
D21*
X135370000Y-64470000D03*
X132830000Y-64470000D03*
X130290000Y-64470000D03*
X127750000Y-64470000D03*
X125210000Y-64470000D03*
X122670000Y-64470000D03*
X120130000Y-64470000D03*
X137910000Y-82250000D03*
X135370000Y-82250000D03*
X132830000Y-82250000D03*
X130290000Y-82250000D03*
X127750000Y-82250000D03*
X125210000Y-82250000D03*
X122670000Y-82250000D03*
X120130000Y-82250000D03*
%TD*%
D11*
%TO.C,R2*%
X112590000Y-95750000D03*
X122750000Y-95750000D03*
%TD*%
D22*
%TO.C,J1*%
X113580000Y-53497500D03*
D16*
X118580000Y-53497500D03*
%TD*%
D11*
%TO.C,R9*%
X170450000Y-77250000D03*
X170450000Y-87410000D03*
%TD*%
%TO.C,R5*%
X180750000Y-109580000D03*
X180750000Y-99420000D03*
%TD*%
D23*
%TO.C,Q4*%
X185055000Y-101710000D03*
D24*
X185055000Y-104250000D03*
X185055000Y-106790000D03*
%TD*%
D25*
%TO.C,J5*%
X128000000Y-101750000D03*
D26*
X130000000Y-101750000D03*
X132000000Y-101750000D03*
%TD*%
D27*
%TO.C,Q1*%
X114210000Y-90695000D03*
D28*
X116750000Y-90695000D03*
X119290000Y-90695000D03*
%TD*%
D12*
%TO.C,J2*%
X185500000Y-93000000D03*
D13*
X185500000Y-91000000D03*
X185500000Y-89000000D03*
X185500000Y-87000000D03*
%TD*%
D11*
%TO.C,R3*%
X133250000Y-59580000D03*
X133250000Y-49420000D03*
%TD*%
%TO.C,R6*%
X186000000Y-82830000D03*
X186000000Y-72670000D03*
%TD*%
D20*
%TO.C,S5V1*%
X131250000Y-121830000D03*
D21*
X131250000Y-119290000D03*
X131250000Y-116750000D03*
%TD*%
D11*
%TO.C,R4*%
X179830000Y-93000000D03*
X169670000Y-93000000D03*
%TD*%
D29*
%TO.C,D3*%
X172500000Y-56870000D03*
D30*
X172500000Y-49250000D03*
%TD*%
D23*
%TO.C,Q3*%
X178250000Y-50500000D03*
D24*
X178250000Y-53040000D03*
X178250000Y-55580000D03*
%TD*%
D12*
%TO.C,J6*%
X127750000Y-94750000D03*
D13*
X127750000Y-92750000D03*
X127750000Y-90750000D03*
X127750000Y-88750000D03*
%TD*%
M02*
