%TF.GenerationSoftware,KiCad,Pcbnew,9.0.6*%
%TF.CreationDate,2025-11-09T15:25:39+01:00*%
%TF.ProjectId,pi-pico-alarmclock,70692d70-6963-46f2-9d61-6c61726d636c,rev?*%
%TF.SameCoordinates,Original*%
%TF.FileFunction,Paste,Top*%
%TF.FilePolarity,Positive*%
%FSLAX46Y46*%
G04 Gerber Fmt 4.6, Leading zero omitted, Abs format (unit mm)*
G04 Created by KiCad (PCBNEW 9.0.6) date 2025-11-09 15:25:39*
%MOMM*%
%LPD*%
G01*
G04 APERTURE LIST*
%ADD10R,3.800000X2.200000*%
G04 APERTURE END LIST*
D10*
%TO.C,U1*%
X146060000Y-49120000D03*
X146060000Y-51660000D03*
X146060000Y-54200000D03*
X146060000Y-56740000D03*
X146060000Y-59280000D03*
X146060000Y-61820000D03*
X146060000Y-64360000D03*
X146060000Y-66900000D03*
X146060000Y-69440000D03*
X146060000Y-71980000D03*
X146060000Y-74520000D03*
X146060000Y-77060000D03*
X146060000Y-79600000D03*
X146060000Y-82140000D03*
X146060000Y-84680000D03*
X146060000Y-87220000D03*
X146060000Y-89760000D03*
X146060000Y-92300000D03*
X146060000Y-94840000D03*
X146060000Y-97380000D03*
X165440000Y-49120000D03*
X165440000Y-51660000D03*
X165440000Y-54200000D03*
X165440000Y-56740000D03*
X165440000Y-59280000D03*
X165440000Y-61820000D03*
X165440000Y-64360000D03*
X165440000Y-66900000D03*
X165440000Y-69440000D03*
X165440000Y-71980000D03*
X165440000Y-74520000D03*
X165440000Y-77060000D03*
X165440000Y-79600000D03*
X165440000Y-82140000D03*
X165440000Y-84680000D03*
X165440000Y-87220000D03*
X165440000Y-89760000D03*
X165440000Y-92300000D03*
X165440000Y-94840000D03*
X165440000Y-97380000D03*
%TD*%
M02*
